# xmcd
#
# Track frame offsets:
#	150
#	14282
#	28322
#	48972
#	67760
#	82115
#	103290
#	116325
#	131755
#	146320
#	164502
#	176417
#	186422
#	198692
#
# Disc length: 2877 seconds
#
# Revision: 0
# Processed by: cddbd v1.5.2PL0 Copyright (c) Steve Scherf et al.
# Submitted via: audiograbber 1.83.01
#
DISCID=c70b3b0e
DTITLE=Ivan Lins - O melhor de Ivan Lins
DYEAR=1998
DGENRE=MPB
TTITLE0=Abre-Alas
TTITLE1=Somos todos iguais esta noite
TTITLE2=Palhaços e Reis
TTITLE3=Não ha porque
TTITLE4=Avarandado
TTITLE5=Sorriso da Mágoa
TTITLE6=Tens(Calmaria)
TTITLE7=Cartomante
TTITLE8=Deixa eu dizer
TTITLE9=Corpos
TTITLE10=Joana dos barcos
TTITLE11=Essa maré
TTITLE12=Nesse botequim
TTITLE13=Não tem perdão
EXTD=
EXTT0=
EXTT1=
EXTT2=
EXTT3=
EXTT4=
EXTT5=
EXTT6=
EXTT7=
EXTT8=
EXTT9=
EXTT10=
EXTT11=
EXTT12=
EXTT13=
PLAYORDER=
